<svg xmlns="http://www.w3.org/2000/svg" viewBox="0 0 512 512" width="512" height="512">
  <defs>
    <radialGradient id="bg" cx="50%" cy="50%" r="50%">
      <stop offset="0%" stop-color="#0b1329"/>
      <stop offset="100%" stop-color="#020617"/>
    </radialGradient>
    <linearGradient id="neonGlow" x1="0%" y1="0%" x2="100%" y2="100%">
      <stop offset="0%" stop-color="#10b981"/>
      <stop offset="100%" stop-color="#8b5cf6"/>
    </linearGradient>
  </defs>
  <rect width="512" height="512" rx="128" fill="url(#bg)"/>
  <g transform="translate(128, 128) scale(1)">
    <!-- Outer Glow Trophy Contour -->
    <path d="M128 32 C70 32 64 80 64 128 C64 200 110 240 128 256 L128 320 L96 320 C80 320 80 352 96 352 L160 352 L160 320 L128 320 M128 256 L128 32 C186 32 192 80 192 128 C192 200 146 240 128 256" stroke="url(#neonGlow)" stroke-width="16" stroke-linecap="round" stroke-linejoin="round" fill="none"/>
    <!-- Trophy Handles -->
    <path d="M64 96 L32 96 C16 96 16 160 32 160 L64 160" stroke="#10b981" stroke-width="12" stroke-linecap="round" fill="none"/>
    <path d="M192 96 L224 96 C240 96 240 160 224 160 L192 160" stroke="#8b5cf6" stroke-width="12" stroke-linecap="round" fill="none"/>
    <!-- Stars -->
    <polygon points="128,64 133,76 146,76 136,84 140,96 128,88 116,96 120,84 110,76 123,76" fill="#10b981"/>
  </g>
</svg>
